<?xml version="1.0" encoding="utf-8" ?><svg xmlns="http://www.w3.org/2000/svg" xmlns:xlink="http://www.w3.org/1999/xlink" width="1630" height="1630" viewBox="0 0 1630 1630"><path fill="#F3B391" transform="matrix(1.5918 0 0 1.5918 3.05176e-05 0)" d="M0 0L1024 0L1024 677.827L1024 963.328L1024 1024L0 1024L0 970.294L0 672.806L0 0Z"/><defs><linearGradient id="gradient_0" gradientUnits="userSpaceOnUse" x1="511.2218" y1="984.02161" x2="512.30078" y2="765.91602"><stop offset="0" stop-color="#844E59"/><stop offset="1" stop-color="#F391B0"/></linearGradient></defs><path fill="url(#gradient_0)" transform="matrix(1.5918 0 0 1.5918 3.05176e-05 0)" d="M0 672.806L1.62499 673.348C2.17732 705.663 0.567124 740.014 1.66629 772.256C2.09437 772.405 11.7869 768.226 14.4121 768C32.4081 766.451 50.1314 766.608 68.0861 764.146C71.0307 764.017 74.4296 764.494 77.2946 764.618C85.809 764.986 96.8284 766.066 105.242 765.109C123.22 763.063 140.049 765.773 157.989 766.109L305.894 768.162C309.309 768.228 311.946 768.914 315.155 769.164C318.304 769.409 321.842 769.035 325.132 769.389C336.742 770.637 348.274 770.172 359.971 770.636C365.89 770.87 373.853 769.805 380.086 769.971C388.228 770.188 396.381 770.859 404.51 770.682C411.656 770.527 419.343 769.065 426.493 768.899C430.465 768.807 436.92 769.631 441.017 769.617C450.216 769.586 499.021 767.482 503.929 769.051C504.071 769.613 504.213 770.176 504.355 770.738C513.048 768.143 509.287 769.129 517.377 769.035L519.182 770.381C519.829 769.507 520.468 768.17 521.698 768.405C527.896 769.586 532.173 771.263 538.645 771.534C548.655 772.215 558.565 771.813 568.579 771.515C575.25 771.316 582.609 772.239 589.252 771.839C605.098 770.885 620.886 770.496 636.753 770.092C639.924 770.012 643.182 771.017 646.372 770.858C656.412 770.629 666.589 769.762 676.626 769.812C685.662 769.856 696.981 772.383 705.89 771.72C723.57 770.405 740.618 771.133 758.294 772.166C761.901 772.377 765.581 771.476 769.194 771.551C784.078 772.863 796.544 773.47 811.141 776.725C814.446 777.462 837.534 776.432 842.005 776.332C851.035 776.13 860.339 776.255 869.5 776.214C873.52 776.196 880.771 775.454 885.564 775.272C892.573 775.007 898.768 775.66 905.368 775.583C921.654 775.394 937.842 775.788 954.109 776.348C963.114 776.658 974.444 778.547 983.543 779.554C986.996 779.936 990.757 779.442 993.956 779.69C1003.57 780.435 1012.66 781.175 1022.2 782.629C1022.73 781.246 1022.52 767.421 1022.51 763.546C1022.44 735.389 1022.65 706.898 1022.34 678.727C1022.59 678.471 1022.84 678.215 1023.09 677.958L1024 677.827L1024 963.328L1024 1024L0 1024L0 970.294L0 672.806Z"/><defs><linearGradient id="gradient_1" gradientUnits="userSpaceOnUse" x1="511.67596" y1="1023.7377" x2="511.83423" y2="977.26849"><stop offset="0" stop-color="#8D976D"/><stop offset="1" stop-color="#814B56"/></linearGradient></defs><path fill="url(#gradient_1)" transform="matrix(1.5918 0 0 1.5918 3.05176e-05 0)" d="M1.69545 981.755C13.4682 981.805 26.6128 980.997 37.9607 981.263C58.6104 982.055 79.1913 981.409 99.8394 981.369C108.043 981.353 116.505 980.534 124.754 980.653C128.733 980.71 133.728 979.888 137.576 980.152C163.02 981.893 187.896 979.134 213.259 978.814L359.21 978.205C383.94 978.024 408.93 976.535 433.67 977.006C435.174 976.984 437.958 978.28 439.327 978.176C468.651 975.934 497.745 979.973 526.978 978.624C529.925 978.487 532.958 978.845 535.899 978.887C565.306 979.184 594.623 978.718 623.995 980.399C630.831 980.79 638.602 980.082 645.157 980.871C662.227 982.926 679.086 981.422 696.235 981.324L888.587 981.755L972.751 981.735C984.205 981.818 1012.24 983.386 1022.29 981.569C1023.16 976.792 1020.86 966.441 1024 963.328L1024 1024L0 1024L0 970.294L1.17982 970.557C1.74851 973.473 1.51466 978.389 1.69545 981.755Z"/><path fill="#F6D4BA" transform="matrix(1.5918 0 0 1.5918 3.05176e-05 0)" d="M932.312 540.444C938.21 557.497 929.506 582.88 911.031 588.021C898.043 591.635 881.367 589.64 867.878 589.025C856.022 588.463 844.162 587.979 832.299 587.572C808.402 586.961 784.502 586.473 760.6 586.107C729.662 585.68 696.412 586.386 665.488 587.147C564.778 589.596 464.266 597.341 364.369 610.347C315.399 616.378 266.727 624.615 218.501 635.032C201.337 638.76 183.036 642.713 166.129 647.472L115.74 623.5C107.386 619.572 98.9723 615.772 90.5028 612.1C111.063 606.29 131.937 602.485 152.848 598.321C187.755 591.371 222.847 587.249 258.195 583.243C305.912 577.545 353.795 573.348 401.775 570.66C438.428 568.644 472.415 568.13 508.956 567.443C569.874 565.852 630.819 565.563 691.75 566.577C734.067 566.912 779.57 567.567 821.712 569.419C837.57 570.11 853.423 570.91 869.271 571.817C885.889 572.736 907.077 576.795 920.047 564.234C927.482 557.034 929.411 550.009 932.312 540.444Z"/><path fill="#F3B391" transform="matrix(1.5918 0 0 1.5918 3.05176e-05 0)" d="M165.426 610.512C171.449 608.943 182.212 607.45 188.684 606.419L232.273 599.766C283.966 591.786 335.962 585.91 388.132 582.154C404.625 580.957 422.982 579.346 439.387 578.947C440.941 579.072 443.214 579.048 444.397 579.859C394.538 584.084 344.828 589.922 295.347 597.363C260.423 602.698 225.12 608.912 191.113 618.578L165.426 610.512Z"/><path fill="#FEFADC" transform="matrix(1.5918 0 0 1.5918 3.05176e-05 0)" d="M125.023 617.257L165.426 610.512L191.113 618.578C189.732 619.423 177.73 623.021 175.366 623.893C170.245 625.783 164.425 628.23 159.318 630.017C148.224 626.315 136.184 621.377 125.023 617.257Z"/><path fill="#C7B287" transform="matrix(1.5918 0 0 1.5918 3.05176e-05 0)" d="M447.331 578.416C449.476 578.549 452.564 578.647 454.607 578.998C451.144 579.344 447.872 579.659 444.397 579.859C443.214 579.048 440.941 579.072 439.387 578.947C441.51 578.515 445.058 578.5 447.331 578.416Z"/><path fill="#78A399" transform="matrix(1.5918 0 0 1.5918 3.05176e-05 0)" d="M447.331 578.416C451.241 577.694 457.796 577.481 461.607 578.553L461.031 578.335L460.64 579.119C459.262 579.11 455.801 579.178 454.607 578.998C452.564 578.647 449.476 578.549 447.331 578.416Z"/><path fill="#F6D4BA" transform="matrix(1.5918 0 0 1.5918 3.05176e-05 0)" d="M532.627 546.605C515.765 560.466 498.236 563.357 476.666 557.943C469.501 556.145 461.426 549.598 458.289 542.708C450.419 525.42 455.224 502.367 460.637 484.908C468.96 460.683 483.39 435.238 506.793 422.878C519.982 415.913 546.36 414.09 554.201 430.165C558.644 439.273 552.01 455.714 542.896 459.872C539.822 461.274 534.439 461.444 531.323 459.764C522.559 454.671 536.641 445.649 532.968 437.437C531.006 433.049 526.5 431.735 522.324 434.116C505.334 443.805 493.308 465.95 486.807 483.753C481.767 497.555 475.69 518.375 481.106 532.762C482.751 536.544 486.959 539.646 490.885 540.835C501.549 544.064 516.568 542.116 526.384 537.004C529.888 535.18 536.517 530.395 538.254 527.042C540.602 522.51 542.389 514.694 543.847 509.563L551.963 480.929C557.31 462.032 562.949 443.219 568.878 424.496L590.582 424.264C585.581 443.319 579.416 462.792 574.249 482.016C579.793 475.317 583.721 469.171 592.556 466.475C597.293 465.03 602.101 465.037 606.535 467.481C630.226 480.543 599.494 532.45 603.258 540.664C603.579 541.366 604.113 541.934 604.826 542.214C606.502 542.871 608.506 542.586 610.07 541.747C624.554 533.978 623.573 518.449 627.622 504.97C631.976 490.477 639.624 476.661 653.407 469.331C659.9 465.878 670.361 462.913 677.552 465.339C681.802 466.773 683.536 469.734 685.314 473.542L687.922 465.049C695.411 465.069 702.9 465.05 710.389 464.992C705.549 482.111 699.443 498.907 694.464 516.193C693.139 520.791 687.488 535.738 688.546 541.068C688.904 541.858 690.204 542.808 691.053 542.697C704.933 540.876 706.835 524.921 713.001 516.245C717.834 509.446 724.13 503.32 729.362 497.7C727.5 488.063 727.126 478.768 734.187 470.806C738.087 466.423 743.595 463.804 749.457 463.546C753.131 463.349 755.701 463.764 758.393 466.22C758.66 467.788 750 476.886 751.052 484.975C752.892 499.113 768.613 500.543 765.45 526.621C765.129 528.079 764.466 530.68 764.265 532.057C759.478 549.163 741.224 561.931 723.409 557.995C715.314 556.207 711.543 551.25 707.492 544.706C697.167 558.938 674.609 567.516 667.543 545.996C658.086 558.33 640.625 564.889 628.754 550.666C626.402 547.848 625.284 544.424 623.945 541.024C618.644 548.571 613.38 555.47 603.908 557.987C598.955 559.303 591.354 558.727 587.387 556.039C569.348 543.816 594.89 505.352 592.202 487.779C591.958 486.61 591.226 485.234 590.055 484.804C585.167 483.009 580.828 488.278 578.077 491.418C566.725 504.373 563.392 521.726 558.605 537.753C556.672 544.224 554.565 550.626 552.59 557.077C544.942 557.248 537.29 557.242 529.642 557.058L532.627 546.605Z"/><path fill="#F3B391" transform="matrix(1.5918 0 0 1.5918 3.05176e-05 0)" d="M668.601 482.584C672.737 482.188 677.698 481.957 680.654 485.288C680.685 488.024 674.815 505.27 673.686 509.116C670.096 521.35 669.384 533.256 657.082 539.768C633.689 545.979 649.609 490.274 668.601 482.584Z"/><path fill="#F3B391" transform="matrix(1.5918 0 0 1.5918 3.05176e-05 0)" d="M739.933 514.495C746.886 525.728 741.394 544.537 725.183 539.684C718.153 534.187 720.24 528.456 727.054 524.033C731.992 520.828 735.64 519.738 739.502 515.029L739.933 514.495Z"/><path fill="#F6D4BA" transform="matrix(1.5918 0 0 1.5918 3.05176e-05 0)" d="M316.065 422.946L338.736 422.932C334.73 436.769 330.436 453.494 325.85 466.862C341.701 462.66 357.953 468.395 360.274 486.553C362.262 507.194 357.002 523.618 344.869 540.89C334.113 556.202 310.851 565.264 293.69 554.229C290.11 551.927 288.598 546.833 288.207 542.517C285.83 546.807 282.585 551.586 278.386 554.07C263.996 562.582 247.847 562.652 244.119 543.785C237.371 554.954 227.306 561.671 214.134 558.852C193.834 554.508 205.748 523.054 209.211 511.175C213.221 497.773 217.13 484.342 220.94 470.883C221.331 469.203 221.371 468.346 222.485 467.023C225.054 466.588 240.583 466.872 244.338 466.841C240.177 480.409 236.486 494.113 232.588 507.757C230.07 516.568 226.941 525.477 225.118 534.448C224.637 536.817 223.948 540.023 224.604 542.368C224.973 543.689 226.154 544.444 227.371 544.893C228.85 545.439 230.365 545.151 231.732 544.445C246.619 536.762 259.034 482.999 263.775 466.498L286.471 466.495C280.142 489.382 272.956 512.594 266.228 535.372C264.441 541.52 269.402 547.377 275.427 543.591C283.171 538.338 287.201 525.326 289.477 516.739C297.77 485.451 308.155 454.284 316.065 422.946Z"/><path fill="#F3B391" transform="matrix(1.5918 0 0 1.5918 3.05176e-05 0)" d="M326.209 480.168C336.418 479.557 340.193 486.24 339.06 495.736C337.215 511.191 330.282 532.329 317.908 542.597C314.403 544.372 309.66 546.521 306.924 542.416C306.074 536.183 309.151 527.144 310.939 521.136C314.822 508.088 317.647 494.603 322.276 481.823C322.705 480.638 325.105 480.374 326.209 480.168Z"/><path fill="#F6D4BA" transform="matrix(1.5918 0 0 1.5918 3.05176e-05 0)" d="M150.844 418.713C175.758 416.991 206.885 423.986 212.155 452.849C214.219 464.15 210.336 478.219 203.603 487.484C194.69 499.749 183.357 504.083 168.771 506.297C169.858 508.266 171.293 510.454 172.494 512.392C180.072 524.615 182.622 538.955 189.225 551.647C191.382 555.782 193.912 559.711 196.785 563.384C198.331 565.361 201.929 569.379 202.943 571.271C202.949 580.03 187.719 580.093 181.479 576.781C159.848 565.298 162.163 536.69 152.658 517.206C150.353 512.481 147.086 509.598 143.069 506.45C140.48 512.914 137.592 522.583 135.311 529.407C129.707 546.05 124.271 562.75 119.005 579.503L95.3632 579.435C99.1106 566.199 104.699 550.455 109.009 537.25C119.308 507.254 128.207 476.436 138.858 446.241C146.874 446.056 154.893 445.986 162.912 446.03C157.735 460.515 153.409 475.005 148.035 489.523C163.664 489.413 180.982 485.964 186.924 470.221C200.503 434.239 154.461 431.709 133.009 443.111C123.225 448.311 115.001 454.749 111.285 465.297C108.326 473.699 110.585 477.03 118.364 479.402C115.486 483.967 108.813 493.705 103.12 494.232C93.6339 495.109 88.1769 483.811 87.6665 475.733C86.9022 463.636 91.2706 451.225 99.1472 442.04C112.798 426.223 130.546 420.288 150.844 418.713Z"/><path fill="#F6D4BA" transform="matrix(1.5918 0 0 1.5918 3.05176e-05 0)" d="M908.354 464.189C913.228 464.393 914.555 464.809 918.849 466.658C906.403 481.02 909.138 489.518 919.044 502.793C923.937 509.351 924.473 523.194 922.464 531.265C917.783 550.07 898.977 562.552 879.794 557.313C872.493 555.335 869.302 551.581 865.668 545.263C861.933 549.891 859.361 552.535 854.379 555.523C846.906 560.272 829.758 560.378 825.825 550.787C820.685 538.253 829.497 518.252 833.529 505.784C837.104 493.451 843.467 477.106 845.897 465.158C853.439 465.021 860.983 465.025 868.525 465.17C861.676 485.188 856.173 505.895 849.848 526.102C848.647 529.937 845.454 539.357 848.172 542.638C848.902 542.997 849.595 543.328 850.439 543.185C863.285 541.023 864.5 526.94 870.181 517.981C874.789 510.714 881.886 504.257 887.493 497.604C887.182 496.07 886.937 494.525 886.759 492.97C885.033 478.202 892.861 465.639 908.354 464.189Z"/><path fill="#F3B391" transform="matrix(1.5918 0 0 1.5918 3.05176e-05 0)" d="M896.817 515.306C899.364 517.696 900.787 523.36 901.651 526.731C899.425 536.516 894.648 541.578 884.292 540.157C878.403 537.308 876.018 531.932 881.235 526.902C886.258 522.06 891.937 521.568 896.384 515.872L896.817 515.306Z"/><path fill="#F6D4BA" transform="matrix(1.5918 0 0 1.5918 3.05176e-05 0)" d="M787.781 498.371C786.016 489.86 785.506 481.031 790.68 473.446C794.147 468.28 799.651 464.836 805.813 463.976C809.448 463.431 816.18 462.974 817.809 466.93C817.511 469.79 808.795 477.665 809.957 485.455C811.005 492.479 816.509 496.306 819.811 502.223C829.008 518.386 825.192 538.827 810.782 550.582C793.447 564.759 762.928 561.64 765.163 533.827L764.265 532.057C764.466 530.68 765.129 528.079 765.45 526.621L766.314 526.928C771.407 514.725 778.822 507.927 787.781 498.371Z"/><path fill="#C7B287" transform="matrix(1.5918 0 0 1.5918 3.05176e-05 0)" d="M765.45 526.621L766.314 526.928C765.867 529.288 765.438 531.433 765.163 533.827L764.265 532.057C764.466 530.68 765.129 528.079 765.45 526.621Z"/><path fill="#F3B391" transform="matrix(1.5918 0 0 1.5918 3.05176e-05 0)" d="M797.479 514.865C800.092 517.067 801.625 525.636 800.932 528.943C799.034 537.996 793.096 541.639 784.26 540.281C782.223 538.93 779.585 536.224 779.369 533.673C778.712 525.917 788.63 522.974 793.636 519.195C795.02 518.152 796.428 516.227 797.479 514.865Z"/><path fill="#F6D4BA" transform="matrix(1.5918 0 0 1.5918 3.05176e-05 0)" d="M377.299 467.611C384.762 467.444 392.512 467.53 399.998 467.515C399.805 468.037 399.618 468.562 399.438 469.089C394.063 484.901 390.5 501.756 385.3 517.7C383.563 523.023 379.502 536.611 381.941 541.509C391.86 548.455 400.167 529.748 403.945 529.184L404.754 529.972C406.363 535.445 404.52 537.936 402.037 542.891C394.945 554.105 382.066 563.091 368.787 558.96C348.09 552.52 362.97 515.699 366.86 502.893L377.299 467.611Z"/><path fill="#F6D4BA" transform="matrix(1.5918 0 0 1.5918 3.05176e-05 0)" d="M409.323 492.502C413.6 492.192 441.859 492.07 445.158 492.802C449.899 497.855 441.918 504.918 438.472 508.342L435.798 510.914C425.279 510.814 414.759 510.792 404.24 510.85C405.511 503.851 407.118 499.257 409.323 492.502Z"/><path fill="#F6D4BA" transform="matrix(1.5918 0 0 1.5918 3.05176e-05 0)" d="M394.588 431.094C414.272 429.818 411.297 453.885 395.064 460.72C376.52 461.518 376.42 438.127 394.588 431.094Z"/><path fill="#F6D4BA" transform="matrix(1.5918 0 0 1.5918 3.05176e-05 0)" d="M860.662 430.609C880.565 428.986 880.764 451.08 864.714 456.402C846.022 458.088 844.385 436.738 860.662 430.609Z"/></svg>